<svg xmlns="http://www.w3.org/2000/svg" width="713.35" height="130.36" viewBox="0 0 713.35 130.36"><defs><style>.cls-1{fill:#fff;}</style></defs><g id="Layer_1" data-name="Layer 1"><path class="cls-1" d="M4.33,9.74A57.45,57.45,0,0,1,13.85,9c4.9,0,8.5,1.14,10.78,3.19a10.34,10.34,0,0,1,3.36,8,11.33,11.33,0,0,1-3,8.21c-2.63,2.79-6.9,4.22-11.75,4.22a17.36,17.36,0,0,1-4-.34V47.71h-5Zm5,18.53a16.92,16.92,0,0,0,4.11.4c6,0,9.63-2.91,9.63-8.21,0-5.07-3.59-7.53-9.06-7.53a21.36,21.36,0,0,0-4.68.4Z"/><path class="cls-1" d="M36.08,35.62l-4,12.09H27L40,9.29h6L59.11,47.71h-5.3l-4.1-12.09Zm12.6-3.87L44.92,20.69c-.86-2.51-1.43-4.79-2-7h-.11c-.57,2.28-1.2,4.61-1.94,7L37.11,31.75Z"/><path class="cls-1" d="M64.07,41.67A17.63,17.63,0,0,0,73,44.17c5.08,0,8-2.67,8-6.55C81,34,79,32,73.76,30c-6.27-2.22-10.15-5.47-10.15-10.89,0-6,5-10.43,12.43-10.43a17.44,17.44,0,0,1,8.49,1.88l-1.36,4.05a15.25,15.25,0,0,0-7.3-1.83c-5.25,0-7.24,3.14-7.24,5.76,0,3.59,2.34,5.36,7.64,7.41,6.5,2.51,9.8,5.65,9.8,11.29,0,5.93-4.39,11.06-13.45,11.06-3.71,0-7.75-1.08-9.81-2.45Z"/><path class="cls-1" d="M92.17,41.67a17.63,17.63,0,0,0,8.89,2.5c5.08,0,8-2.67,8-6.55,0-3.59-2-5.64-7.24-7.64-6.27-2.22-10.15-5.47-10.15-10.89,0-6,5-10.43,12.43-10.43a17.44,17.44,0,0,1,8.49,1.88l-1.36,4.05a15.25,15.25,0,0,0-7.3-1.83c-5.25,0-7.24,3.14-7.24,5.76,0,3.59,2.34,5.36,7.64,7.41,6.5,2.51,9.8,5.65,9.8,11.29,0,5.93-4.39,11.06-13.45,11.06-3.71,0-7.75-1.08-9.8-2.45Z"/><path class="cls-1" d="M125.91,9.29V47.71h-5V9.29Z"/><path class="cls-1" d="M167.41,28.1c0,13.22-8,20.24-17.84,20.24-10.15,0-17.27-7.87-17.27-19.5,0-12.2,7.58-20.18,17.84-20.18C160.63,8.66,167.41,16.7,167.41,28.1Zm-29.81.63c0,8.2,4.44,15.56,12.25,15.56s12.32-7.24,12.32-16c0-7.64-4-15.62-12.26-15.62S137.6,20.29,137.6,28.73Z"/><path class="cls-1" d="M173.85,47.71V9.29h5.41l12.32,19.44a109.71,109.71,0,0,1,6.9,12.48l.11-.06c-.46-5.13-.57-9.8-.57-15.79V9.29h4.67V47.71h-5l-12.2-19.5a119.87,119.87,0,0,1-7.18-12.82l-.18,0c.29,4.85.4,9.47.4,15.85V47.71Z"/><path class="cls-1" d="M231.25,29.69H216.31V43.55H233v4.16H211.35V9.29h20.76v4.16h-15.8V25.59h14.94Z"/><path class="cls-1" d="M239.4,9.8a51.93,51.93,0,0,1,9.52-.8c5.3,0,8.72,1,11.11,3.14a9.56,9.56,0,0,1,3,7.29,10.1,10.1,0,0,1-7.24,9.81v.17c3,1,4.73,3.76,5.64,7.75,1.25,5.36,2.17,9.07,3,10.55h-5.13c-.62-1.08-1.48-4.39-2.56-9.18-1.14-5.3-3.19-7.3-7.7-7.47h-4.67V47.71h-5Zm5,17.5h5.07c5.3,0,8.67-2.91,8.67-7.3,0-5-3.6-7.12-8.84-7.18a20.25,20.25,0,0,0-4.9.46Z"/><path class="cls-1" d="M290,29.69H275V43.55h16.65v4.16H270.06V9.29h20.75v4.16H275V25.59H290Z"/><path class="cls-1" d="M306.32,13.5H294.63V9.29h28.45V13.5H311.33V47.71h-5Z"/><path class="cls-1" d="M338.75,41.67a17.63,17.63,0,0,0,8.89,2.5c5.07,0,8-2.67,8-6.55,0-3.59-2.05-5.64-7.24-7.64-6.27-2.22-10.15-5.47-10.15-10.89,0-6,5-10.43,12.43-10.43a17.44,17.44,0,0,1,8.49,1.88l-1.37,4.05a15.2,15.2,0,0,0-7.29-1.83c-5.25,0-7.24,3.14-7.24,5.76,0,3.59,2.33,5.36,7.64,7.41,6.5,2.51,9.8,5.65,9.8,11.29,0,5.93-4.39,11.06-13.45,11.06-3.71,0-7.76-1.08-9.81-2.45Z"/><path class="cls-1" d="M399.91,30.83c-.28-5.35-.63-11.8-.57-16.58h-.17c-1.31,4.5-2.91,9.29-4.84,14.59l-6.79,18.64h-3.76l-6.21-18.3c-1.83-5.41-3.37-10.37-4.45-14.93H373c-.11,4.78-.39,11.23-.74,17l-1,16.48h-4.73l2.67-38.42h6.33l6.56,18.58c1.6,4.73,2.91,9,3.88,12.94h.17c1-3.88,2.33-8.09,4-12.94L397,9.29h6.33l2.4,38.42h-4.85Z"/><path class="cls-1" d="M421.91,47.71V31.41L409.77,9.29h5.64l5.42,10.6c1.48,2.91,2.62,5.24,3.82,7.92h.11c1.08-2.5,2.39-5,3.88-7.92l5.53-10.6h5.64L426.93,31.35V47.71Z"/><path class="cls-1" d="M443.8,9.29h5V27.81h.17c1-1.48,2.05-2.85,3-4.1L463.69,9.29h6.16l-13.91,16.3,15,22.12h-5.87L452.4,28.84l-3.64,4.22V47.71h-5Z"/><path class="cls-1" d="M474.69,9.29h5V27.81h.17c1-1.48,2.05-2.85,3-4.1L494.58,9.29h6.16l-13.91,16.3,15,22.12H496L483.3,28.84l-3.65,4.22V47.71h-5Z"/><path class="cls-1" d="M525.48,29.69H510.54V43.55h16.65v4.16H505.58V9.29h20.75v4.16H510.54V25.59h14.94Z"/><path class="cls-1" d="M532.94,41.67a17.7,17.7,0,0,0,8.9,2.5c5.07,0,8-2.67,8-6.55,0-3.59-2-5.64-7.24-7.64-6.27-2.22-10.14-5.47-10.14-10.89,0-6,5-10.43,12.43-10.43a17.44,17.44,0,0,1,8.49,1.88L552,14.59a15.21,15.21,0,0,0-7.3-1.83c-5.24,0-7.24,3.14-7.24,5.76,0,3.59,2.34,5.36,7.64,7.41,6.5,2.51,9.81,5.65,9.81,11.29,0,5.93-4.39,11.06-13.46,11.06-3.7,0-7.75-1.08-9.8-2.45Z"/><path class="cls-1" d="M561.73,9.29h5V27.81h.17c1-1.48,2-2.85,3-4.1L581.62,9.29h6.16l-13.91,16.3,15,22.12H583L570.34,28.84l-3.65,4.22V47.71h-5Z"/><path class="cls-1" d="M599.4,35.62l-4,12.09h-5.13L603.34,9.29h6l13.12,38.42h-5.31L613,35.62ZM612,31.75l-3.76-11.06c-.85-2.51-1.42-4.79-2-7h-.12c-.57,2.28-1.2,4.61-1.94,7l-3.76,11.12Z"/><path class="cls-1" d="M628.08,9.8a47.59,47.59,0,0,1,9.06-.8c5,0,8.15.86,10.55,2.79a8.09,8.09,0,0,1,3.19,6.79c0,3.7-2.45,7-6.5,8.44v.11c3.65.91,7.92,3.93,7.92,9.63a10.35,10.35,0,0,1-3.25,7.7c-2.67,2.45-7,3.59-13.28,3.59a57.35,57.35,0,0,1-7.69-.46Zm5,15.73h4.5c5.24,0,8.32-2.73,8.32-6.44,0-4.5-3.42-6.27-8.44-6.27a21.22,21.22,0,0,0-4.38.34ZM633,44a26.69,26.69,0,0,0,4.16.22c5.13,0,9.86-1.88,9.86-7.46,0-5.25-4.5-7.41-9.92-7.41H633Z"/><path class="cls-1" d="M678.86,29.69H663.93V43.55h16.65v4.16H659V9.29h20.75v4.16H663.93V25.59h14.93Z"/><path class="cls-1" d="M687,9.8a51.93,51.93,0,0,1,9.52-.8c5.3,0,8.72,1,11.12,3.14a9.55,9.55,0,0,1,3,7.29,10.09,10.09,0,0,1-7.24,9.81v.17c3,1,4.73,3.76,5.64,7.75,1.26,5.36,2.17,9.07,3,10.55h-5.13c-.63-1.08-1.48-4.39-2.57-9.18-1.14-5.3-3.19-7.3-7.69-7.47H692V47.71h-5Zm5,17.5h5.08c5.3,0,8.66-2.91,8.66-7.3,0-5-3.59-7.12-8.84-7.18a20.25,20.25,0,0,0-4.9.46Z"/><path class="cls-1" d="M250,96.5c0,13.22-8,20.24-17.84,20.24-10.15,0-17.27-7.87-17.27-19.5,0-12.2,7.58-20.18,17.84-20.18C243.22,77.06,250,85.1,250,96.5Zm-29.81.63c0,8.2,4.45,15.56,12.26,15.56s12.31-7.24,12.31-16c0-7.64-4-15.62-12.26-15.62S220.19,88.69,220.19,97.13Z"/><path class="cls-1" d="M285.69,114.4a35.83,35.83,0,0,1-11.81,2.11c-5.81,0-10.6-1.48-14.36-5.08-3.31-3.19-5.36-8.32-5.36-14.3.06-11.46,7.92-19.84,20.81-19.84a23.86,23.86,0,0,1,9.57,1.76l-1.19,4a20,20,0,0,0-8.5-1.65c-9.35,0-15.44,5.81-15.44,15.45s5.87,15.5,14.82,15.5a16.18,16.18,0,0,0,6.61-1V99.92H273v-4h12.66Z"/><path class="cls-1" d="M310.31,77.69v38.42h-5V77.69Z"/><path class="cls-1" d="M319,77.69h5V112h16.42v4.16H319Z"/><path class="cls-1" d="M345.87,78.2a70.57,70.57,0,0,1,10.55-.8c7.12,0,12.2,1.65,15.56,4.79s5.42,7.58,5.42,13.8-1.94,11.4-5.53,14.93-9.52,5.53-17,5.53a81.43,81.43,0,0,1-9-.45Zm5,34a32.45,32.45,0,0,0,5,.28c10.6,0,16.36-5.93,16.36-16.3.06-9.07-5.07-14.83-15.56-14.83a27.76,27.76,0,0,0-5.82.52Z"/><path class="cls-1" d="M383.15,110.07a17.64,17.64,0,0,0,8.89,2.51c5.08,0,8-2.68,8-6.56,0-3.59-2.05-5.64-7.24-7.64-6.27-2.22-10.15-5.47-10.15-10.89,0-6,5-10.43,12.43-10.43a17.52,17.52,0,0,1,8.5,1.88l-1.37,4a15.25,15.25,0,0,0-7.3-1.83c-5.24,0-7.24,3.14-7.24,5.76,0,3.59,2.34,5.36,7.64,7.41,6.5,2.51,9.8,5.65,9.8,11.29,0,5.93-4.39,11.06-13.45,11.06-3.7,0-7.75-1.08-9.8-2.45Z"/><path class="cls-1" d="M419.8,77.69h5V103.4c0,10.2-5,13.34-11.63,13.34a15.86,15.86,0,0,1-5.3-.92l.74-4a11.83,11.83,0,0,0,4.16.74c4.45,0,7.07-2,7.07-9.52Z"/><path class="cls-1" d="M428.63,116.11l17.56-38.42h24.06v4.16H453.89l1.48,12.25h14.31v4.11H456L457.71,112h14.08v4.16H453.43l-1.71-13.57h-11.8l-6.16,13.57Zm22.52-17.56L449.9,87.49c-.23-1.82-.57-4.27-.69-6.21H449c-.69,1.82-1.6,4-2.46,6l-4.95,11.23Z"/><path class="cls-1" d="M477.94,77.69h5V112h16.42v4.16H477.94Z"/></g></svg>