<svg xmlns="http://www.w3.org/2000/svg" width="335.67" height="217.96" viewBox="0 0 335.67 217.96"><defs><style>.cls-1{fill:#fff;}</style></defs><g id="Layer_1" data-name="Layer 1"><path class="cls-1" d="M165,136.19a68.1,68.1,0,1,1,68.09-68.1A68.18,68.18,0,0,1,165,136.19ZM165,5a63.1,63.1,0,1,0,63.09,63.09A63.16,63.16,0,0,0,165,5Z"/><rect class="cls-1" x="162.52" y="71.85" width="5" height="61.84"/><rect class="cls-1" x="183.62" y="71.85" width="5" height="58.37"/><rect class="cls-1" x="204.72" y="71.85" width="5" height="45.28"/><rect class="cls-1" x="120.69" y="71.85" width="5" height="47.76"/><rect class="cls-1" x="141.8" y="71.85" width="5" height="58.37"/><path class="cls-1" d="M4.33,165.28h5v18.53h.17c1-1.48,2.06-2.85,3-4.1l11.75-14.43h6.15l-13.9,16.31,15,22.12H25.6L12.94,184.84l-3.65,4.22v14.65h-5Z"/><path class="cls-1" d="M35.23,165.28h5v34.27H56.6v4.16H35.23Z"/><path class="cls-1" d="M68.34,191.62l-4,12.09H59.22l13.06-38.43h6l13.11,38.43h-5.3L82,191.62Zm12.6-3.87-3.76-11.06c-.86-2.51-1.43-4.79-2-7h-.11c-.57,2.28-1.2,4.62-1.94,7l-3.76,11.12Z"/><path class="cls-1" d="M97,165.8a51.06,51.06,0,0,1,9.52-.8c5.3,0,8.73,1,11.12,3.14a9.55,9.55,0,0,1,3,7.29,10.09,10.09,0,0,1-7.24,9.81v.17c3,1,4.73,3.76,5.65,7.75,1.25,5.36,2.16,9.07,3,10.55h-5.13c-.63-1.09-1.48-4.39-2.57-9.18-1.14-5.3-3.19-7.3-7.69-7.47H102v16.65H97Zm5,17.5h5.08c5.3,0,8.66-2.91,8.66-7.3,0-5-3.59-7.12-8.83-7.18a20.29,20.29,0,0,0-4.91.46Z"/><path class="cls-1" d="M134.18,191.62l-4,12.09h-5.13l13.05-38.43h6l13.11,38.43h-5.3l-4.11-12.09Zm12.6-3.87L143,176.69c-.85-2.51-1.42-4.79-2-7h-.12c-.57,2.28-1.19,4.62-1.93,7l-3.77,11.12Z"/><path class="cls-1" d="M174.93,165.8A47.79,47.79,0,0,1,184,165c5,0,8.15.86,10.54,2.79a8.07,8.07,0,0,1,3.19,6.79c0,3.7-2.45,6.95-6.49,8.43v.12c3.64.91,7.92,3.93,7.92,9.63a10.35,10.35,0,0,1-3.25,7.7c-2.68,2.45-7,3.59-13.28,3.59a57.53,57.53,0,0,1-7.7-.46Zm5,15.73h4.5c5.25,0,8.33-2.73,8.33-6.44,0-4.5-3.42-6.27-8.44-6.27a21.42,21.42,0,0,0-4.39.34Zm0,18.42a26.85,26.85,0,0,0,4.16.22c5.13,0,9.86-1.88,9.86-7.47,0-5.24-4.5-7.41-9.91-7.41h-4.11Z"/><path class="cls-1" d="M205.83,165.28h4.95v34.27H227.2v4.16H205.83Z"/><path class="cls-1" d="M263.34,184.1c0,13.22-8,20.23-17.84,20.23-10.15,0-17.27-7.86-17.27-19.49,0-12.2,7.58-20.18,17.84-20.18C256.56,164.66,263.34,172.7,263.34,184.1Zm-29.81.62c0,8.21,4.44,15.57,12.25,15.57s12.32-7.24,12.32-16c0-7.63-4-15.61-12.26-15.61S233.53,176.29,233.53,184.72Z"/><path class="cls-1" d="M296.63,202.45a24.48,24.48,0,0,1-10.15,1.83c-10.83,0-19-6.84-19-19.44,0-12,8.15-20.18,20.06-20.18,4.79,0,7.81,1,9.12,1.71l-1.19,4a17.93,17.93,0,0,0-7.75-1.6c-9,0-15,5.76-15,15.85,0,9.4,5.42,15.45,14.77,15.45a19.8,19.8,0,0,0,8.09-1.6Z"/><path class="cls-1" d="M307.8,165.28v16.08h18.58V165.28h5v38.43h-5v-18H307.8v18h-5V165.28Z"/></g></svg>